<svg xmlns="http://www.w3.org/2000/svg" viewBox="0 0 674.64 680.34"><defs><style>.cls-1{fill:#00263e;}.cls-2{fill:#3dae2b;}.cls-3{fill:#93d500;}.cls-4{fill:#fff;}</style></defs><title>SYMBOL</title><g id="Layer_2" data-name="Layer 2"><g id="Copy"><path class="cls-1" d="M674.61,24a352.47,352.47,0,0,0-37.05-11.85A365.91,365.91,0,0,0,543.12,0,369.79,369.79,0,0,0,337.35,62.2,369.45,369.45,0,0,0,131.52,0,365.87,365.87,0,0,0,37.13,12.19,341.91,341.91,0,0,0,0,24C-.74,24.33,17.73,80.19,18.37,80A348.75,348.75,0,0,1,57,68.58a325.85,325.85,0,0,1,74.57-8.44A331.31,331.31,0,0,1,303.29,108c-31.84,26.91-131.73,101.4-131.73,263.41,0,209.38,158.52,304.32,165,308.66a1.52,1.52,0,0,0,1.64,0c6.39-4.4,164.91-99.28,164.91-308.66,0-162.72-99.9-236.5-131.67-263.41A331.21,331.21,0,0,1,543.12,60.14a326.44,326.44,0,0,1,74.63,8.44A339.52,339.52,0,0,1,656.26,80C656.91,80.19,675.37,24.33,674.61,24Z"/><path class="cls-2" d="M433.1,311.9c49.32,85.44-19.16,238.56-61.91,268.92C348.15,466.21,373.93,374.64,433.1,311.9Z"/><path class="cls-3" d="M303.49,580.82c-42.74-30.36-111.22-183.48-61.91-268.92C300.76,374.64,326.53,466.21,303.49,580.82Z"/><path class="cls-4" d="M404.44,234.53a293,293,0,0,1-67.07,7.7,294.19,294.19,0,0,1-67.13-7.7,301,301,0,0,1,67.13-74.77A300.79,300.79,0,0,1,404.44,234.53Z"/></g></g></svg>