<svg xmlns="http://www.w3.org/2000/svg" viewBox="0 0 892.41 145.03"><defs><style>.cls-1{fill:#152849;}.cls-2{fill:#54b30e;}.cls-3{fill:#93e600;}.cls-4{fill:#fff;}</style></defs><title>CRL_Horizontal_Color</title><g id="Layer_2" data-name="Layer 2"><g id="Copy"><path class="cls-1" d="M151.13,72.52c0-21.9,14.87-37.68,38.29-37.68,20.88,0,34.42,11.1,36.36,27.9H208.26c-1.83-8.05-8.55-13.14-18.74-13.14-13.44,0-21.18,9-21.18,22.92s7.74,22.91,21.18,22.91c10.19,0,16.91-5.09,18.74-13.14h17.52c-1.94,16.81-15.48,27.9-36.36,27.9C166,110.19,151.13,94.41,151.13,72.52Z"/><path class="cls-1" d="M229.36,84.33c0-15,10.39-25.87,27.29-25.87s27.19,10.9,27.19,25.87-10.39,25.86-27.19,25.86S229.36,99.3,229.36,84.33Zm39,0c0-7.44-4.38-12.73-11.71-12.73s-11.71,5.29-11.71,12.73,4.28,12.73,11.71,12.73S268.36,91.76,268.36,84.33Z"/><path class="cls-1" d="M288.2,84.33c0-15.48,10.08-25.87,26.28-25.87,14.66,0,24.23,7.74,25.45,20H324.35c-1.12-4.58-4.07-6.72-9.77-6.72-6.72,0-10.8,4.48-10.8,12.63S307.86,97,314.58,97c5.7,0,8.65-2,9.77-6.32h15.58c-1.22,11.92-10.79,19.55-25.45,19.55C298.28,110.19,288.2,99.81,288.2,84.33Z"/><path class="cls-1" d="M376.34,110.19,360.65,88.81v21.38H345.18V38.91h15.47V81.78l16.09-20.67h18.33L375.52,84.33l19.86,25.86Z"/><path class="cls-1" d="M399.2,61.11h15.58V71.4c1.74-7.33,7.54-11.1,13.55-11.1,1.83,0,5.25,1,6.69,2.79l-8.31,11.46c-8.45,0-11.93,5.81-11.93,16.7v18.94H399.2Z"/><path class="cls-1" d="M431.29,84.33c0-15,10.39-25.87,27.29-25.87s27.19,10.9,27.19,25.87-10.38,25.86-27.19,25.86S431.29,99.3,431.29,84.33Zm39,0c0-7.44-4.38-12.73-11.71-12.73s-11.71,5.29-11.71,12.73,4.28,12.73,11.71,12.73S470.29,91.76,470.29,84.33Z"/><path class="cls-1" d="M490.34,84.33c0-14.67,9.06-25.87,23.32-25.87,7.13,0,12.73,3.36,15.38,8.35v-7h15.48v49.08H529v-6.93c-2.65,4.89-8.76,8.25-15.58,8.25C498.79,110.19,490.34,99.09,490.34,84.33Zm39.31,0c0-7-4-12.83-11.71-12.83-7.23,0-11.71,5.39-11.71,12.83s4.48,12.93,11.71,12.93C525.68,97.26,529.65,91.46,529.65,84.33Z"/><path class="cls-1" d="M550.11,84.33c0-15.48,10.08-25.87,26.28-25.87,14.66,0,24.23,7.74,25.45,20H586.26c-1.12-4.58-4.07-6.72-9.77-6.72-6.72,0-10.8,4.48-10.8,12.63S569.77,97,576.49,97c5.7,0,8.65-2,9.77-6.32h15.58c-1.22,11.92-10.79,19.55-25.45,19.55C560.19,110.19,550.11,99.81,550.11,84.33Z"/><path class="cls-1" d="M656.33,79.85v30.34H640.65V84.94c0-8.25-2.35-12-8.66-12s-9.47,4.08-9.47,11.61v25.66H606.94V38.91h15.58V68.24c2.85-5.5,8.45-8.45,15.89-8.45C650.32,59.79,656.33,66.51,656.33,79.85Z"/><path class="cls-1" d="M691.1,38.91h16.5V95.53H727l8.72,14.66H691.1Z"/><path class="cls-1" d="M731.23,84.33c0-14.67,9.06-25.87,23.32-25.87,7.13,0,12.73,3.36,15.38,8.35v-7h15.48v49.08H769.93v-6.93c-2.65,4.89-8.76,8.25-15.58,8.25C739.68,110.19,731.23,99.09,731.23,84.33Zm39.31,0c0-7-4-12.83-11.71-12.83-7.23,0-11.71,5.39-11.71,12.83s4.48,12.93,11.71,12.93C766.57,97.26,770.54,91.46,770.54,84.33Z"/><path class="cls-1" d="M845.79,84.33c0,15.38-9.47,25.86-23,25.86-7.23,0-13.14-3.66-15.68-8.25v6.93H791.62V37.59H807.1V66.81c2.65-4.68,8.76-8.35,16.09-8.35C836.63,58.46,845.79,68.85,845.79,84.33Zm-15.88,0c0-7.54-4.79-12.83-11.61-12.83-7,0-11.81,5.19-11.81,12.83s4.89,12.93,11.81,12.93S829.91,92,829.91,84.33Z"/><path class="cls-1" d="M847.71,94.1h15.48c0,3.36,3.26,5.71,8,5.71,3.36,0,5.71-1.63,5.71-4.48,0-2.24-1.12-3.57-5.3-4.59L861.35,88.2C853.52,86.26,849,81.27,849,73.84c0-9.27,8.36-15.38,21-15.38,13.85,0,21.89,5.4,21.89,15.18H876.53c0-3.47-2.55-5.3-6.72-5.3-3.36,0-5.6,1.63-5.6,4S865.63,76,869.6,77L880,79.85c7.74,2,12.42,6.72,12.42,14.15,0,10.19-8.45,16.19-21.48,16.19C857,110.19,847.71,103.68,847.71,94.1Z"/><path class="cls-1" d="M143.81,5.12a76.41,76.41,0,0,0-7.9-2.52,79.19,79.19,0,0,0-64,10.66A78.76,78.76,0,0,0,28,0,78,78,0,0,0,7.92,2.6,74.51,74.51,0,0,0,0,5.12c-.16.07,3.78,12,3.92,11.92a73.94,73.94,0,0,1,8.22-2.42A69.52,69.52,0,0,1,28,12.82,70.59,70.59,0,0,1,64.65,23c-6.78,5.74-28.08,21.62-28.08,56.15A78.09,78.09,0,0,0,71.74,145a.32.32,0,0,0,.35,0c1.36-.93,35.16-21.16,35.16-65.8C107.25,44.5,86,28.77,79.18,23a70.58,70.58,0,0,1,36.6-10.21,69.6,69.6,0,0,1,15.91,1.8A72.54,72.54,0,0,1,139.9,17C140,17.09,144,5.19,143.81,5.12Z"/><path class="cls-2" d="M92.33,66.49c10.51,18.21-4.09,50.86-13.2,57.33C74.22,99.38,79.71,79.87,92.33,66.49Z"/><path class="cls-3" d="M64.7,123.82C55.59,117.35,41,84.7,51.5,66.49,64.11,79.87,69.61,99.38,64.7,123.82Z"/><path class="cls-4" d="M86.22,50a62.45,62.45,0,0,1-14.3,1.64A62.6,62.6,0,0,1,57.61,50,64,64,0,0,1,71.92,34.06,63.94,63.94,0,0,1,86.22,50Z"/></g></g></svg>